# xmcd
#
# Track frame offsets: 
#        150
#        14212
#        24750
#        35655
#        49665
#        63472
#        77437
#        90995
#        102570
#        115350
#        128060
#        140757
#        154005
#        166260
#        176792
#        188652
#        200650
#        216892
#        232922
#        243305
#        257355
#        274497
#        286702
#        300050
#        314797
#        322020
#        338152
#
# Disc length: 4726 seconds
#
# Revision: 6
# Processed by: cddbd v1.5.2PL0 Copyright (c) Steve Scherf et al.
# Submitted via: ExactAudioCopy v0.99pb3
#
DISCID=7d12741b
DTITLE=Otis Rush - I Can't Quit You Baby - The Cobra Sessions 1956-195
DTITLE=8
DYEAR=2000
DGENRE=Blues
TTITLE0=I Can't Quit You Baby
TTITLE1=Sit Down Baby
TTITLE2=Violent Love
TTITLE3=My Love Will Never Die
TTITLE4=Groaning The Blues
TTITLE5=If You Were Mine
TTITLE6=Love That Woman
TTITLE7=Jump Sister Bessie
TTITLE8=Three Times A Fool
TTITLE9=She's A Good 'Un
TTITLE10=It Takes Time
TTITLE11=Checking On My Baby
TTITLE12=Double Trouble
TTITLE13=Keep On Loving Me Baby
TTITLE14=All Your Love (I Miss Loving)
TTITLE15=My Baby's A Good 'Un
TTITLE16=I Can't Quit You Baby (alternate take)
TTITLE17=I Can't Quit You Baby (alternate take #3)
TTITLE18=Sit Down Baby (alternate take)
TTITLE19=My Love Will Never Die (alternate take)
TTITLE20=Groaning The Blues (alternate take)
TTITLE21=Groaning The Blues (alternate take #3)
TTITLE22=Three Times A Fool (alternate take)
TTITLE23=She's A Good 'Un (alternate take #4)
TTITLE24=Keep On Loving Me Baby (alternate take)
TTITLE25=Double Trouble (alternate take)
TTITLE26=Double Trouble (alternate take #3)
EXTD=
EXTT0=
EXTT1=
EXTT2=
EXTT3=
EXTT4=
EXTT5=
EXTT6=
EXTT7=
EXTT8=
EXTT9=
EXTT10=
EXTT11=
EXTT12=
EXTT13=
EXTT14=
EXTT15=
EXTT16=
EXTT17=
EXTT18=
EXTT19=
EXTT20=
EXTT21=
EXTT22=
EXTT23=
EXTT24=
EXTT25=
EXTT26=
PLAYORDER=
